<?xml version="1.0" standalone="no"?>
<!DOCTYPE svg PUBLIC "-//W3C//DTD SVG 20010904//EN"
 "http://www.w3.org/TR/2001/REC-SVG-20010904/DTD/svg10.dtd">
<svg version="1.0" xmlns="http://www.w3.org/2000/svg"
 width="386.000000pt" height="386.000000pt" viewBox="0 0 386.000000 386.000000"
 preserveAspectRatio="xMidYMid meet">
<metadata>
Created by potrace 1.14, written by Peter Selinger 2001-2017
</metadata>
<g transform="translate(0.000000,386.000000) scale(0.100000,-0.100000)"
fill="#000000" stroke="none">
<path d="M3208 3105 c38 -77 87 -235 108 -350 21 -120 29 -394 15 -523 -54
-500 -312 -938 -696 -1184 -174 -112 -409 -200 -595 -224 -87 -11 -90 -16 -28
-62 195 -144 403 -239 577 -264 l79 -11 78 43 c561 302 894 850 894 1470 0
277 -55 511 -180 765 -67 135 -188 313 -255 375 l-27 25 30 -60z"/>
<path d="M771 2499 c-195 -93 -390 -241 -484 -368 l-40 -54 6 -171 c6 -194 29
-329 83 -495 190 -583 699 -1014 1322 -1121 200 -35 509 -23 662 25 l45 14
-61 0 c-194 2 -484 97 -719 236 -419 246 -702 626 -797 1068 -31 146 -31 437
0 581 18 82 68 245 97 319 10 24 2 22 -114 -34z"/>
</g>
</svg>
